<svg width="200" height="77" viewBox="0 0 200 77" fill="none" xmlns="http://www.w3.org/2000/svg">
<g clip-path="url(#clip0_54676_26100)">
<path d="M26.78 19.9235C26.7244 21.3966 26.2372 22.8209 25.379 24.0189C24.5207 25.217 23.3294 26.136 21.9532 26.6616C20.577 27.1872 19.0768 27.2962 17.6392 26.975C16.2016 26.6537 14.8901 25.9165 13.868 24.855C12.8459 23.7935 12.1583 22.4546 11.8908 21.005C11.6232 19.5553 11.7876 18.059 12.3634 16.7021C12.9392 15.3452 13.9009 14.1878 15.129 13.3738C16.3571 12.5599 17.7973 12.1253 19.2703 12.1243C20.2751 12.1427 21.2665 12.3591 22.1878 12.7611C23.109 13.1631 23.9422 13.7427 24.6395 14.467C25.3369 15.1912 25.8849 16.0459 26.2522 16.9822C26.6194 17.9184 26.7988 18.9179 26.78 19.9235Z" fill="#283745"/>
<path d="M0.566736 17.4419C1.24724 14.9341 2.3493 12.5604 3.82568 10.4226C2.97565 14.4158 3.55229 18.5809 5.45516 22.1924C6.58464 24.3827 7.93796 26.4499 9.49341 28.3609C12.469 31.8351 19.0577 36.7274 22.0333 39.1381L29.8264 45.4484C29.8264 45.4484 39.0365 52.5386 41.5161 60.4797C42.3175 63.3184 42.4071 66.3111 41.7768 69.1927C41.1466 72.0743 39.816 74.7559 37.9029 77C37.9029 77 39.8158 70.9733 36.6277 65.2302C35.451 62.9686 34.0506 60.8309 32.4477 58.849C30.5349 56.5801 26.2132 53.0349 22.8126 50.4116L20.0496 48.2845L18.6326 47.2919C16.5072 45.732 12.3273 42.3996 12.3273 42.3996C12.3273 42.3996 3.04637 34.8839 0.566736 26.9429C-0.17703 23.8196 -0.17703 20.5652 0.566736 17.4419Z" fill="#D82E4A"/>
<path d="M34.9981 16.8039C35.4768 15.2662 35.7158 13.6639 35.7066 12.0534C35.6358 9.64273 35.069 8.36647 32.7311 6.1685C30.3931 3.97052 30.5348 4.18323 29.8263 2.97789C29.3713 2.0532 29.1522 1.0301 29.1887 0C28.3474 1.28456 27.9038 2.78913 27.9135 4.32503C27.9843 6.02669 28.6928 7.30295 30.5348 8.8628C31.7628 9.79822 32.8591 10.8953 33.7938 12.1243C34.9273 13.6841 34.9981 16.8039 34.9981 16.8039Z" fill="#283745"/>
<path d="M36.486 12.1243C36.486 12.1243 36.7694 17.0874 32.802 24.0359C28.8346 30.9843 19.412 36.0893 19.412 36.0893L25.5756 41.0525C25.5756 41.0525 32.3061 36.1602 35.8484 29.7081C37.511 26.6378 38.3873 23.203 38.3989 19.7108C38.2742 17.0795 37.6238 14.4998 36.486 12.1243Z" fill="#283745"/>
<path d="M17.995 47.7881L11.9022 43.0376C9.97312 45.2159 8.52468 47.7769 7.6514 50.5533C7.04238 52.7936 6.7561 55.1095 6.80125 57.4308C6.7304 60.7632 8.28903 65.5137 8.28903 65.5137C8.14882 64.0298 8.31768 62.533 8.78495 61.1177C9.35859 59.3634 10.1186 57.6757 11.052 56.0837C13.2483 52.3967 17.995 47.7881 17.995 47.7881Z" fill="#283745"/>
<path d="M16.0822 76.9999C16.7282 75.1802 17.0402 73.2586 17.0032 71.3278C16.8615 69.3425 16.4364 67.7117 14.1693 65.6556C11.9022 63.5994 11.2646 62.7486 10.9812 61.7559C10.6876 60.8619 10.5206 59.9311 10.4853 58.9907C10.4853 58.9907 7.6514 64.3793 9.70595 67.8536C11.7605 71.3278 12.1147 70.9733 14.0984 73.5966C14.9147 74.6332 15.5824 75.7787 16.0822 76.9999Z" fill="#283745"/>
<path d="M71.4991 46.1582C71.4991 50.3414 68.0985 53.0357 63.8477 53.0357H54V29.4961H63.21C67.3191 29.4961 70.6489 32.1904 70.6489 36.2319C70.6694 37.1044 70.4957 37.9707 70.1403 38.7678C69.785 39.5649 69.2569 40.2729 68.5944 40.8405C69.4949 41.4018 70.2354 42.1861 70.7443 43.1177C71.2531 44.0493 71.5131 45.0966 71.4991 46.1582ZM59.3843 34.5302V38.7134H63.21C63.4825 38.7234 63.7541 38.677 64.0078 38.5771C64.2616 38.4773 64.4921 38.3262 64.6849 38.1333C64.8777 37.9403 65.0287 37.7097 65.1284 37.4557C65.2281 37.2018 65.2745 36.93 65.2646 36.6573C65.2741 36.3813 65.228 36.1063 65.129 35.8486C65.03 35.5909 64.8802 35.3558 64.6884 35.1573C64.4967 34.9588 64.267 34.801 64.013 34.6932C63.759 34.5855 63.4859 34.53 63.21 34.5302H59.3843ZM66.1147 45.7328C66.1246 45.4321 66.0727 45.1327 65.9622 44.853C65.8518 44.5732 65.6852 44.3192 65.4727 44.1065C65.2601 43.8938 65.0063 43.727 64.7268 43.6165C64.4472 43.506 64.148 43.454 63.8477 43.4639H59.3843V48.0017H63.8477C64.1508 48.0227 64.4549 47.9784 64.7394 47.8718C65.024 47.7652 65.2824 47.5987 65.4973 47.3837C65.7121 47.1687 65.8784 46.9101 65.9849 46.6253C66.0915 46.3405 66.1357 46.0361 66.1147 45.7328Z" fill="#283745"/>
<path d="M81.5594 29.4961V53.0357H76.175V29.4961H81.5594Z" fill="#283745"/>
<path d="M86.1644 41.2661C86.1644 38.8401 86.8832 36.4686 88.2299 34.4514C89.5767 32.4343 91.4908 30.8621 93.7304 29.9337C95.97 29.0053 98.4343 28.7624 100.812 29.2357C103.189 29.709 105.373 30.8772 107.087 32.5927C108.801 34.3081 109.969 36.4937 110.442 38.8731C110.915 41.2525 110.672 43.7188 109.744 45.9601C108.817 48.2015 107.246 50.1172 105.23 51.465C103.214 52.8128 100.845 53.5322 98.4207 53.5322C96.8059 53.5512 95.2036 53.247 93.708 52.6373C92.2124 52.0276 90.8537 51.1247 89.7117 49.9819C88.5698 48.8391 87.6677 47.4793 87.0585 45.9825C86.4493 44.4858 86.1454 42.8822 86.1644 41.2661ZM105.222 41.2661C105.319 40.3091 105.215 39.3422 104.916 38.428C104.617 37.5138 104.129 36.6726 103.485 35.9587C102.841 35.2448 102.054 34.6741 101.176 34.2836C100.297 33.893 99.3465 33.6912 98.3853 33.6912C97.4241 33.6912 96.4735 33.893 95.5951 34.2836C94.7167 34.6741 93.93 35.2448 93.2857 35.9587C92.6413 36.6726 92.1538 37.5138 91.8547 38.428C91.5555 39.3422 91.4512 40.3091 91.5487 41.2661C91.5487 45.4494 94.5242 48.2854 98.4207 48.2854C102.317 48.2854 105.222 45.4494 105.222 41.2661Z" fill="#283745"/>
<path d="M132.356 37.579C132.356 38.6525 132.143 39.7153 131.728 40.7053C131.313 41.6953 130.706 42.5928 129.941 43.3452C129.176 44.0976 128.269 44.6901 127.272 45.0878C126.276 45.4856 125.21 45.6807 124.138 45.6619H120.596V53.0358H115.211V29.4961H124.138C125.21 29.4773 126.276 29.6725 127.272 30.0702C128.269 30.468 129.176 31.0604 129.941 31.8128C130.706 32.5653 131.313 33.4627 131.728 34.4527C132.143 35.4428 132.356 36.5055 132.356 37.579ZM126.972 37.579C126.991 37.1914 126.932 36.8039 126.799 36.4394C126.666 36.0748 126.462 35.7406 126.197 35.4565C125.933 35.1723 125.615 34.944 125.261 34.7849C124.908 34.6258 124.526 34.5392 124.138 34.5302H120.596V40.6278H124.138C124.526 40.6188 124.908 40.5322 125.261 40.3732C125.615 40.2141 125.933 39.9857 126.197 39.7016C126.462 39.4174 126.666 39.0832 126.799 38.7187C126.932 38.3541 126.991 37.9666 126.972 37.579Z" fill="#283745"/>
<path d="M147.801 49.3488H139.087L137.953 53.0357H132.073L140.008 29.4961H146.88L154.885 53.0357H149.005L147.801 49.3488ZM146.242 44.3147L143.479 35.6646L140.716 44.3147H146.242Z" fill="#283745"/>
<path d="M166.221 45.3073H163.67V53.0357H158.286V29.4961H167.709C169.851 29.4961 171.905 30.3477 173.42 31.8635C174.934 33.3794 175.785 35.4353 175.785 37.579C175.761 39.0018 175.344 40.3902 174.582 41.5912C173.819 42.7922 172.74 43.7592 171.464 44.3856L176.423 53.0357H170.684L166.221 45.3073ZM163.67 40.6278H167.709C168.517 40.6278 169.292 40.3066 169.863 39.7348C170.434 39.1631 170.755 38.3876 170.755 37.579C170.755 36.7704 170.434 35.9949 169.863 35.4232C169.292 34.8514 168.517 34.5302 167.709 34.5302H163.67V40.6278Z" fill="#283745"/>
<path d="M193.709 53.036L188.325 43.4641L186.341 45.733V53.036H180.674V29.6382H186.341V37.9337L193.143 29.6382H200.156L192.151 39.1391L200.369 53.036H193.709Z" fill="#283745"/>
</g>
<defs>
<clipPath id="clip0_54676_26100">
<rect width="200" height="77" fill="white"/>
</clipPath>
</defs>
</svg>
